<?xml version="1.0" encoding="UTF-8"?>
<svg width="42px" height="42px" viewBox="0 0 42 42" version="1.1" xmlns="http://www.w3.org/2000/svg" xmlns:xlink="http://www.w3.org/1999/xlink">
    <!-- Generator: Sketch 43.2 (39069) - http://www.bohemiancoding.com/sketch -->
    <title>bee</title>
    <desc>Created with Sketch.</desc>
    <defs>
        <path d="M7.57763975,4.18381685e-13 C12.0333021,2.96408075 15.0310559,8.50417074 15.0310559,14.8494481 C15.0310559,21.1947254 12.0333021,26.7348154 7.57763975,29.6988962 C3.12197736,26.7348154 0.124223602,21.1947254 0.124223602,14.8494481 C0.124223602,8.50417074 3.12197736,2.96408075 7.57763975,-8.52651283e-13 L7.57763975,4.18381685e-13 Z" id="path-1"></path>
    </defs>
    <g id="Symbols" stroke="none" stroke-width="1" fill="none" fill-rule="evenodd">
        <g id="footer" transform="translate(-62.000000, -1.000000)">
            <g id="Group-3">
                <g>
                    <g id="bee" transform="translate(62.000000, 0.000000)">
                        <g transform="translate(1.000000, 1.000000)">
                            <path d="M12.7950311,31.9254658 L8.07453416,40.621118" id="Line" stroke="#F6F7F7" stroke-linecap="round"></path>
                            <path d="M27.0328769,0.560378084 C27.0328769,0.560378084 24.5617366,1.97021386 23.5157961,3.89694641 C23.2402763,4.40448293 23.0264063,5.01649309 22.8608249,5.64271883" id="Line" stroke="#F6F7F7" stroke-linecap="round" transform="translate(24.946851, 3.101548) rotate(19.000000) translate(-24.946851, -3.101548) "></path>
                            <path d="M17.8014314,0.574281793 C17.8014314,0.574281793 15.3302912,1.98411757 14.2843507,3.91085012 C14.0373429,4.36586455 13.8398855,4.90484865 13.6823509,5.46276557" id="Line" stroke="#F6F7F7" stroke-linecap="round" transform="translate(15.741891, 3.018524) scale(-1, 1) rotate(19.000000) translate(-15.741891, -3.018524) "></path>
                            <path d="M31.9254658,31.9254658 L27.2049689,40.621118" id="Line" stroke="#F6F7F7" stroke-linecap="round" transform="translate(29.565217, 36.273292) scale(-1, 1) translate(-29.565217, -36.273292) "></path>
                            <g id="Group-2" transform="translate(8.695652, 6.459627)" stroke="#F6F7F7">
                                <path d="M0.124223602,0.124223602 L2.19763086,1.50649511" id="Line" stroke-linecap="round"></path>
                                <path d="M2.5,1.86335404 L2.5,6.33540373" id="Line" stroke-linecap="round"></path>
                                <path d="M2.60869565,6.33540373 L5.57041554,8.85286563" id="Line" stroke-linejoin="round"></path>
                            </g>
                            <g id="Group-2" transform="translate(28.552795, 10.959627) scale(-1, 1) translate(-28.552795, -10.959627) translate(25.552795, 6.459627)" stroke="#F6F7F7">
                                <path d="M0.124223602,0.124223602 L2.19763086,1.50649511" id="Line" stroke-linecap="round"></path>
                                <path d="M2.5,1.86335404 L2.5,6.33540373" id="Line" stroke-linecap="round"></path>
                                <path d="M2.60869565,6.33540373 L5.63605437,8.90865864" id="Line"></path>
                            </g>
                            <path d="M18.0972868,12.9314915 C16.6461282,12.1923446 15.6521739,10.6842973 15.6521739,8.94409938 C15.6521739,6.85200846 17.0887554,5.09544914 19.0292702,4.60706968 C19.3796551,4.51888648 19.7464697,5.2173913 20.1242236,5.2173913 C20.6943484,5.2173913 21.2395552,4.57873606 21.7409691,4.77323386 C23.4117369,5.42132249 24.5962733,7.04437929 24.5962733,8.94409938 C24.5962733,10.7489976 23.5270348,12.3041617 21.9874303,13.0107194 C21.3649783,12.4242524 20.7005069,11.894576 20,11.4285714 L20,11.4285714 C19.3311768,11.8734988 18.695203,12.3764685 18.0972868,12.9314915 Z" id="Combined-Shape" stroke="#F6F7F7"></path>
                            <path d="M27.0695719,30.1600867 C26.1272909,34.8407305 23.5181023,38.7870884 20,41.1274676 C16.5125961,38.8075102 13.9183131,34.9094789 12.955475,30.2824461 C15.9083632,26.024474 17.9657487,20.9122671 17.9657487,20.9122671 L17.9467125,13.0731305 C18.5880858,12.4617824 19.2747287,11.9110502 20,11.4285714 L20,11.4285714 C20.7777688,11.9459736 21.5111147,12.5418676 22.1918476,13.2068346 L22.1730323,20.9549689 C22.1730323,20.9549689 24.1777227,25.9362384 27.0695719,30.1600867 Z" id="Combined-Shape" stroke="#F6F7F7" stroke-width="0.99378882"></path>
                            <path d="M27.0695719,30.1600867 C26.1272909,34.8407305 23.5181023,38.7870884 20,41.1274676 C16.5125961,38.8075102 13.9183131,34.9094789 12.955475,30.2824461 C15.9083632,26.024474 17.9657487,20.9122671 17.9657487,20.9122671 L17.9467125,13.0731305 C18.5880858,12.4617824 19.2747287,11.9110502 20,11.4285714 L20,11.4285714 C20.7777688,11.9459736 21.5111147,12.5418676 22.1918476,13.2068346 L22.1730323,20.9549689 C22.1730323,20.9549689 24.1777227,25.9362384 27.0695719,30.1600867 Z" id="Combined-Shape" stroke="#F6F7F7" stroke-width="0.7"></path>
                            <g id="Group-3" transform="translate(12.422360, 11.428571)">
                                <mask id="mask-2" fill="white">
                                    <use xlink:href="#path-1"></use>
                                </mask>
                                <g id="Combined-Shape"></g>
                                <path d="M2.85714286,24.5 L12.5465839,24.5" id="Line" stroke="#F6F7F7" stroke-linejoin="bevel" mask="url(#mask-2)"></path>
                            </g>
                            <path d="M14.2857143,29.5 L25.7142857,29.5" id="Line" stroke="#F6F7F7" stroke-linecap="square"></path>
                            <path d="M17.515528,23.5 L22.484472,23.5" id="Line" stroke="#F6F7F7" stroke-linecap="square"></path>
                            <path d="M18.5093168,17.5 L21.8732922,17.5" id="Line" stroke="#F6F7F7" stroke-linecap="square"></path>
                            <path d="M17.4494444,13.4161491 C17.4494444,13.4161491 -5.89105083,25.4910714 1.41683568,34.3138587 C8.72472219,43.136646 17.4688543,21.4091615 17.4688543,21.4091615 L17.4494444,13.4161491 Z" id="Path-2-Copy" stroke="#F6F7F7"></path>
                            <path d="M39.8096928,13.4161491 C39.8096928,13.4161491 16.4691976,25.4910714 23.7770841,34.3138587 C31.0849706,43.136646 39.8291028,21.4091615 39.8291028,21.4091615 L39.8096928,13.4161491 Z" id="Path-2-Copy" stroke="#F6F7F7" transform="translate(31.094676, 24.918930) scale(-1, 1) translate(-31.094676, -24.918930) "></path>
                        </g>
                    </g>
                </g>
            </g>
        </g>
    </g>
</svg>